<svg xmlns="http://www.w3.org/2000/svg" viewBox="0 0 134.49 134.49"><defs><style>.cls-1{fill:#f2f2f2;}.cls-2{fill:none;}.cls-3{fill:#f7ddcb;}.cls-4{fill:#9baec9;}.cls-5{fill:#9d2b3b;}.cls-6{fill:#c1d4f2;}.cls-7{fill:#ffe6d4;}.cls-8{fill:#534d46;}.cls-9{fill:#191819;}.cls-10{fill:#222123;}</style></defs><g id="Object"><circle class="cls-1" cx="67.25" cy="67.25" r="67.25"/><path class="cls-2" d="M651.57,560.39l.38.37A2.17,2.17,0,0,0,651.57,560.39Z" transform="translate(-566.94 -476.03)"/><path class="cls-2" d="M618.17,560.28a2,2,0,0,0-.64.63Z" transform="translate(-566.94 -476.03)"/><path class="cls-3" d="M634.69,567.84a.41.41,0,0,1,.13.17.38.38,0,0,1,.12-.17c8-6.13,11.14-10.24,12.55-11.32a17.05,17.05,0,0,1-1.51-5.77l-.5.46a20.74,20.74,0,0,1-3.09,2.26,14.94,14.94,0,0,1-3,1.34,14.47,14.47,0,0,1-2.91.6,14.25,14.25,0,0,1-3.69-.11,13.42,13.42,0,0,1-2.92-.79,16.21,16.21,0,0,1-3-1.58,22.56,22.56,0,0,1-3.13-2.56h0a17.5,17.5,0,0,1-1.57,6.19C623.61,557.69,626.77,561.77,634.69,567.84Z" transform="translate(-566.94 -476.03)"/><path class="cls-4" d="M632.18,579.24c-1.08-2.42-2.29-3.81-2.42-5.82-1.11,1.24-1.92,2.53-1.8,3.75.32,3.43-9.68-8.1-10.93-13.94-.12,1-.21,3.38,2.94,8,1.55,2.29,5.68,14.09,9.75,26.79,1.28-8.55,2.51-16.31,2.88-18.38A1,1,0,0,1,632.18,579.24Z" transform="translate(-566.94 -476.03)"/><path class="cls-4" d="M637.45,579.24a1,1,0,0,1-.42.42c.39,2.12,1.67,10.24,3,19.05,3.44-11.8,7.69-24.64,9.6-27.46,3-4.43,3.06-6.77,3-7.87-1.39,5.88-11.21,17.19-10.89,13.79.11-1.22-.7-2.51-1.8-3.75C639.75,575.43,638.54,576.82,637.45,579.24Z" transform="translate(-566.94 -476.03)"/><path class="cls-4" d="M650.89,574.64l.09.06,0-.07Z" transform="translate(-566.94 -476.03)"/><path class="cls-5" d="M640,598.71c-1.32-8.81-2.6-16.93-3-19.05a1,1,0,0,0,.42-.42c1.09-2.42,2.3-3.81,2.43-5.82-1.94-2.16-4.78-4.13-5.06-5.13-.29,1-3.12,3-5.06,5.13.13,2,1.34,3.4,2.42,5.82a1,1,0,0,0,.42.42c-.37,2.07-1.6,9.83-2.88,18.38,1.33,4.16,2.65,8.41,3.88,12.46l.79,0c.8,0,1.59,0,2.38-.06C637.66,607,638.78,602.93,640,598.71Z" transform="translate(-566.94 -476.03)"/><path class="cls-6" d="M618.17,560.28l-.64.63a2.94,2.94,0,0,0-.44,1.82c0,.1,0,.27-.06.5,1.25,5.84,11.25,17.37,10.93,13.94-.12-1.22.69-2.51,1.8-3.75,1.94-2.16,4.77-4.13,5.06-5.13.28,1,3.12,3,5.06,5.13,1.1,1.24,1.91,2.53,1.8,3.75-.32,3.4,9.5-7.91,10.89-13.79,0-.31-.08-.52-.07-.65a2.81,2.81,0,0,0-.55-2l-.38-.37a1.63,1.63,0,0,0-.32-.2h.11a18,18,0,0,1-3-3.72c-.19-.33-.46-.3-.92.06-1.41,1.08-4.55,5.19-12.55,11.32a.38.38,0,0,0-.12.17.41.41,0,0,0-.13-.17c-7.92-6.07-11.08-10.15-12.5-11.29-.48-.38-.77-.43-1-.09a17.71,17.71,0,0,1-3,3.72h.06Z" transform="translate(-566.94 -476.03)"/><path class="cls-7" d="M626.9,552.93a16.21,16.21,0,0,0,3,1.58,13.42,13.42,0,0,0,2.92.79,14.25,14.25,0,0,0,3.69.11,14.47,14.47,0,0,0,2.91-.6,14.94,14.94,0,0,0,3-1.34,20.74,20.74,0,0,0,3.09-2.26l.5-.46.4-.38c4.13-4,4.09-14,5.08-13.32,2.28,1.52,3.74-3,4-5.73.24-2.31-.63-3.47-1.6-3a2.64,2.64,0,0,1-1,1.24s-1.42,5.88-2,5.7-.34-5.49.61-11.7c1-6.62-7.11-3.74-12.8-3.92s-18.85-1.29-19.87,1.83,1,12.56.16,12.92-1.83-4.28-2.64-5.2a2.8,2.8,0,0,1-.4-1c-.82-.05-1.47,1.1-1.25,3.13.28,2.71,1.74,7.25,4,5.73,1-.71,1,9.32,5.07,13.31h0A22.56,22.56,0,0,0,626.9,552.93Z" transform="translate(-566.94 -476.03)"/><path class="cls-8" d="M619,534.36c.82-.36-1.17-9.8-.16-12.92s14.18-2,19.87-1.83,13.82-2.7,12.8,3.92c-1,6.21-1.22,11.51-.61,11.7s2-5.7,2-5.7a2.64,2.64,0,0,0,1-1.24c1.6-3.56.85-12.61.85-14.19,0-1.84-2.84-5-4.06-5s-.2-5.15-8.53-7.35-15.65-1.1-19.71.92-7.11,5.51-8.94,6.06.61,1.84-.82,3.12,1,2.94,1.43,5.52c.34,2.15,1.11,8.31,1.83,10.78a2.8,2.8,0,0,0,.4,1C617.14,530.08,618.16,534.73,619,534.36Z" transform="translate(-566.94 -476.03)"/><path class="cls-9" d="M658.39,566c2,3.57,2.11,5.76,3.52,6.82s-9.71,1.78-10.91,1.86l0,.07,7.74,5.85s-6.73,9.16-10.34,14.53c-1.27,1.89-4.44,7.33-6.21,10.44-.5.88-1.49,2.72-2.58,4.78a66.76,66.76,0,0,0,29-9.11c1.09-13.21,4.16-31.05,10.13-30-2.37-1-9-2.32-13.47-4.14-3.87-1.58-7-3.55-8.86-3.59A10.41,10.41,0,0,1,658.39,566Z" transform="translate(-566.94 -476.03)"/><path d="M651.57,560.39a2.17,2.17,0,0,1,.38.37,2.81,2.81,0,0,1,.55,2c0,.13,0,.34.07.65.11,1.1.06,3.44-3,7.87-1.91,2.82-6.16,15.66-9.6,27.46-1.24,4.22-2.36,8.3-3.25,11.75,1,0,1.88-.08,2.82-.16,1.09-2.06,2.08-3.9,2.58-4.78,1.77-3.11,4.94-8.55,6.21-10.44,3.61-5.37,10.34-14.53,10.34-14.53L651,574.7l-.09-.06H651c1.2-.08,12.24-.87,10.91-1.86s-1.52-3.25-3.52-6.82a10.41,10.41,0,0,0-2-2.52c-1-.92-2-1.57-2.49-2a3.94,3.94,0,0,0-2.5-1.25h-.11A1.63,1.63,0,0,1,651.57,560.39Z" transform="translate(-566.94 -476.03)"/><path class="cls-10" d="M602,602.22a66.89,66.89,0,0,0,27.64,8.12c-1.08-2.43-1.91-4.25-2.23-4.82-1.77-3.11-4.94-8.55-6.21-10.44-3.61-5.37-10.34-14.53-10.34-14.53l7.83-5.91s-12.43-.82-11-1.87,1.52-3.25,3.52-6.82a10.58,10.58,0,0,1,2.11-2.58c-1.9.56-4.51,2.09-7.64,3.37-4.95,2-12.48,3.4-14.06,4.44C597.86,569.7,601,588.79,602,602.22Z" transform="translate(-566.94 -476.03)"/><path d="M611.2,566c-2,3.57-2.11,5.76-3.52,6.82s11,1.87,11,1.87l-7.83,5.91s6.73,9.16,10.34,14.53c1.27,1.89,4.44,7.33,6.21,10.44.32.57,1.15,2.39,2.23,4.82,1.31.09,2.62.15,4,.16-1.23-4-2.55-8.3-3.88-12.46-4.07-12.7-8.2-24.5-9.75-26.79-3.15-4.64-3.06-7-2.94-8,0-.23.06-.4.06-.5a2.94,2.94,0,0,1,.44-1.82,2,2,0,0,1,.64-.63l.16-.09h-.06c-.22,0-1.06,0-2.54,1.25-.49.42-1.44,1.05-2.42,1.94A10.58,10.58,0,0,0,611.2,566Z" transform="translate(-566.94 -476.03)"/><path d="M602,602.22c-1-13.43-4.15-32.52-10.4-31a3.8,3.8,0,0,0-.79.29c-1.43.71-2.88,8.19-4.7,18.61A67.54,67.54,0,0,0,602,602.22Z" transform="translate(-566.94 -476.03)"/><path d="M668.55,601.19a67.23,67.23,0,0,0,15.55-12.63c-1.7-9.62-3.08-16.41-4.44-17.09a4,4,0,0,0-1-.31C672.71,570.14,669.64,588,668.55,601.19Z" transform="translate(-566.94 -476.03)"/></g></svg>